<svg width="14" height="15" viewBox="0 0 14 15" fill="none" xmlns="http://www.w3.org/2000/svg">
<path d="M7 0C7.46297 0 7.90698 0.183915 8.23435 0.511285C8.56172 0.838655 8.74564 1.28266 8.74564 1.74564C8.74564 2.20861 8.56172 2.65262 8.23435 2.97999C7.90698 3.30736 7.46297 3.49127 7 3.49127C6.53703 3.49127 6.09302 3.30736 5.76565 2.97999C5.43828 2.65262 5.25436 2.20861 5.25436 1.74564C5.25436 1.28266 5.43828 0.838655 5.76565 0.511285C6.09302 0.183915 6.53703 0 7 0ZM9.70224 2.44389C11.1895 2.44389 12.586 3.8404 12.586 5.23691C14.4713 5.23691 14.4713 8.02993 12.586 8.02993H1.41397C-0.471322 8.02993 -0.471322 5.23691 1.41397 5.23691C1.41397 3.8404 2.81047 2.44389 4.29776 2.44389C4.60499 3.65187 5.70125 4.53865 7 4.53865C8.29875 4.53865 9.39501 3.65187 9.70224 2.44389ZM2.11222 9.42643H4.20698L4.90524 14.3142H3.50873L2.11222 9.42643ZM5.60349 9.42643H8.39651L7.69825 14.3142H6.30175L5.60349 9.42643ZM9.79302 9.42643H11.8878L10.4913 14.3142H9.09476L9.79302 9.42643Z"/>
</svg>
