<svg width="14" height="13" viewBox="0 0 14 13" fill="none" xmlns="http://www.w3.org/2000/svg">
<path d="M13.2763 0.23551C13.1402 -0.0683085 12.7513 -0.0804612 12.5885 0.206344C11.835 1.51641 10.486 2.33308 8.94507 2.33308H7.00062C4.42423 2.33308 2.33396 4.42335 2.33396 6.99974C2.33396 7.16987 2.3534 7.33272 2.37042 7.498C3.92111 6.38724 6.15965 5.44418 9.33396 5.44418C9.54785 5.44418 9.72285 5.61918 9.72285 5.83307C9.72285 6.04696 9.54785 6.22196 9.33396 6.22196C3.22354 6.22196 0.632568 9.96744 0.0589566 11.3747C-0.10146 11.7709 0.0881233 12.223 0.484304 12.3858C0.882915 12.5511 1.335 12.3591 1.50028 11.9654C1.53673 11.8779 2.00826 10.8011 3.24785 9.76327C4.03535 10.8303 5.53257 11.8487 7.49889 11.6397C11.3149 11.3626 14.0006 7.94036 14.0006 3.75009C14.0006 2.52995 13.7381 1.26606 13.2763 0.23551Z" fill="#6FCF97"/>
</svg>
